<svg version="1.1" id="Layer_1" xmlns="http://www.w3.org/2000/svg" xmlns:xlink="http://www.w3.org/1999/xlink" x="0px" y="0px"
	 width="100%" viewBox="0 0 576 1024" enable-background="new 0 0 576 1024" xml:space="preserve">
<path fill="#000000" opacity="1.000000" stroke="none" 
	d="
M529.707703,407.496765 
	C527.953003,410.827240 528.833069,411.841766 532.222595,412.047363 
	C544.764771,412.808014 554.385254,419.642273 563.367310,427.630768 
	C563.969116,428.166016 564.622070,428.889954 564.790100,429.630707 
	C568.669861,446.732758 569.064819,463.607117 560.963745,479.774963 
	C559.714233,482.268738 558.052063,484.621643 556.246216,486.756775 
	C552.691223,490.960114 552.342346,497.007874 548.006653,500.724701 
	C547.270325,501.355896 546.779602,502.643311 546.006409,502.801422 
	C541.236389,503.776978 540.322083,507.768524 538.851501,511.409943 
	C534.204834,522.915894 527.743347,533.378967 518.025146,541.099609 
	C510.827484,546.817810 506.269989,554.040771 502.750519,562.059753 
	C497.917572,573.071533 491.576447,583.188110 485.409424,593.432678 
	C483.356384,596.843079 481.743134,600.525818 479.594482,603.869263 
	C476.638000,608.469849 473.660248,613.050354 469.949799,617.153870 
	C460.426056,627.686523 454.680115,640.742249 446.803070,652.368347 
	C433.316223,672.274231 419.940704,692.261475 400.988983,707.784912 
	C391.221497,715.785461 382.465881,725.013916 373.140930,733.565369 
	C368.484589,737.835510 363.537903,741.762390 357.834625,744.637329 
	C346.113342,750.545898 334.843567,757.433167 322.391602,761.769592 
	C310.632080,765.864990 298.624512,766.195068 286.311371,764.011169 
	C270.956573,761.287659 257.580109,754.003235 243.850983,747.307129 
	C236.467331,743.705750 229.395004,739.572876 221.796646,735.531433 
	C230.804062,752.489746 229.400986,770.544922 229.272385,788.418396 
	C229.087143,814.161499 224.379684,835.899231 217.955704,839.614075 
	C215.201431,834.922791 217.235825,830.146545 218.011414,825.679565 
	C219.633377,816.338074 220.846329,806.948364 221.222885,797.518433 
	C221.343872,794.488586 222.484863,791.807007 222.496979,788.775879 
	C222.552765,774.838074 221.814590,760.987427 219.596497,747.214294 
	C219.155212,744.474182 218.480148,741.397156 219.277542,738.913696 
	C220.724152,734.408386 218.378098,732.461121 215.285767,730.448547 
	C207.757767,725.548950 199.928146,721.032898 192.837036,715.562500 
	C184.194000,708.894836 174.681000,703.294739 167.288834,695.010315 
	C161.929367,689.003906 158.193115,681.966125 154.107132,675.178772 
	C145.728317,661.260132 139.010315,646.435791 130.854736,632.343872 
	C124.105537,620.682007 117.324081,608.687195 113.909058,595.286377 
	C112.058006,588.022644 108.241814,581.479004 105.132339,574.687988 
	C104.996277,574.390808 104.816422,574.031494 104.554344,573.886108 
	C92.266418,567.070312 86.725868,554.058655 77.486656,544.448059 
	C77.393806,544.351501 77.174553,544.376465 76.308914,544.204895 
	C75.979538,551.861755 76.430878,559.347717 77.681114,566.784729 
	C78.269386,570.284119 78.746323,573.714355 77.167931,577.054993 
	C75.145119,581.336182 72.682152,581.752625 68.893806,578.889832 
	C62.542339,574.090149 59.919464,567.060364 57.553291,559.985596 
	C54.466202,550.755310 51.810707,541.380493 48.985359,532.062988 
	C43.586857,514.259766 42.428707,495.922546 44.982082,477.750549 
	C46.352581,467.996979 47.135742,457.994812 49.908920,448.410858 
	C50.513245,446.322388 50.671936,444.161377 50.361496,441.974274 
	C49.514652,436.008179 49.417767,430.141510 52.607128,424.676086 
	C52.858452,424.245361 52.493393,423.454956 52.320610,422.084869 
	C48.089542,424.052307 44.234138,425.761322 40.461937,427.637665 
	C38.799366,428.464661 37.214741,429.332367 35.289116,429.193817 
	C29.687860,428.790833 24.144072,428.601410 18.475609,429.093414 
	C11.699166,429.681549 8.942667,425.075073 12.089265,419.147491 
	C18.530550,407.013336 24.409832,394.520813 29.792677,381.990387 
	C36.174427,367.134735 42.308498,352.014343 46.943668,336.382355 
	C49.551270,327.588287 52.568066,318.921783 58.190205,311.193756 
	C62.522537,305.238647 64.953308,297.930603 68.534241,291.390961 
	C73.398651,282.507355 79.285851,274.112122 83.421104,264.916870 
	C90.526207,249.117752 103.129257,237.463257 113.014030,223.791489 
	C117.206245,217.993164 125.248184,215.942368 130.018677,210.296295 
	C138.409760,200.365097 149.318024,193.520096 159.789047,186.231110 
	C166.814072,181.340881 174.269806,176.849030 183.042603,175.426361 
	C184.548904,175.182068 185.819504,174.314865 186.053268,172.290024 
	C184.329224,170.831711 182.629120,171.871246 181.118378,172.650635 
	C174.612823,176.006927 167.812210,178.799179 161.678329,182.873550 
	C159.178680,184.533920 156.484283,185.595261 153.609528,184.727768 
	C152.953781,182.801376 153.782883,182.009308 154.797729,181.335815 
	C171.918533,169.973740 189.776779,159.984070 210.054565,155.643753 
	C227.441788,151.922165 243.989212,145.096237 261.569489,142.246918 
	C270.575439,140.787262 279.611694,139.499695 288.658386,138.319550 
	C290.219177,138.115936 291.981079,138.619370 293.513397,139.173889 
	C300.664246,141.761688 308.237335,140.967346 315.546478,141.519287 
	C337.367371,143.167053 358.055511,148.841705 378.317444,156.648117 
	C382.242065,158.160156 385.861969,160.843628 390.485229,160.087555 
	C391.128510,159.982361 392.116150,160.564316 392.601562,161.124969 
	C399.851562,169.499268 410.314148,173.865875 418.021332,181.752609 
	C424.764618,188.653030 431.796478,195.264587 437.544891,203.047348 
	C441.600677,208.538483 446.730774,212.525238 452.790771,215.618301 
	C463.460327,221.064178 473.123047,228.055695 482.144226,235.909470 
	C486.391846,239.607376 490.126099,243.963760 494.648376,247.259674 
	C500.087952,251.224167 501.870026,256.995239 504.141235,262.703125 
	C504.987823,264.830780 505.001251,266.397858 501.942780,267.433441 
	C512.118835,275.543091 517.248840,286.591461 523.275391,296.848633 
	C526.760925,302.780945 528.626038,309.822479 530.333435,316.588623 
	C531.530823,321.333801 533.955261,325.724823 533.746826,330.982086 
	C533.461548,338.176636 532.679810,345.334808 533.579834,352.651550 
	C534.789124,362.482147 535.567993,372.404785 535.105530,382.399933 
	C534.707520,391.001465 532.716919,399.138641 529.707703,407.496765 
M148.554520,481.079224 
	C147.220795,473.487152 138.244385,470.799225 137.057190,463.059418 
	C136.187363,457.388611 130.399704,454.850525 128.389267,449.557068 
	C126.695015,445.096222 125.347206,440.452118 123.324875,436.116974 
	C120.689346,430.467316 119.177216,424.570190 118.790474,418.394531 
	C118.582581,415.074829 118.621307,412.133514 115.275208,409.745361 
	C113.052208,408.158844 112.158195,405.097351 112.335358,401.691864 
	C112.739548,393.922089 113.358742,386.150726 112.001999,378.310486 
	C110.728981,370.954010 109.488708,363.458221 112.034630,355.955505 
	C112.688110,354.029755 113.381676,352.385223 115.218056,351.970367 
	C117.471344,351.461334 117.510796,353.818634 118.364723,355.129761 
	C120.418167,358.282715 117.896774,361.270142 118.149712,364.361115 
	C118.725792,371.401062 119.827690,378.124817 123.359520,384.566254 
	C127.234528,391.633575 130.009247,399.310547 133.162323,406.764618 
	C134.641937,410.262512 138.793015,413.081451 138.045364,416.855438 
	C136.791870,423.182983 144.646713,426.415283 142.512360,432.620026 
	C142.489090,432.687653 142.712067,432.894501 142.854813,432.956940 
	C149.792007,435.990479 150.452408,443.964630 155.465683,448.867981 
	C163.024139,456.260803 171.873749,460.134705 181.660049,463.982910 
	C180.879959,454.513824 173.899246,448.896088 169.745712,442.394135 
	C171.177505,439.937256 173.132889,442.856506 174.379105,439.956757 
	C169.061691,432.276520 168.728790,422.331909 165.438980,413.310028 
	C164.985733,412.067047 164.052368,410.669037 164.299683,409.555725 
	C165.628754,403.573090 162.778290,398.084961 162.097992,392.399353 
	C161.523117,387.594788 161.075241,385.764862 166.809250,387.628204 
	C166.097656,379.494995 168.203613,372.210175 168.875671,364.770172 
	C169.129181,361.963562 170.021866,357.871368 173.586182,358.298920 
	C176.976883,358.705627 178.750549,357.033966 181.238144,355.655975 
	C180.792786,354.718475 179.798676,353.412964 180.064224,353.062805 
	C182.662201,349.637299 181.573700,345.724854 181.816895,341.992432 
	C181.936783,340.152344 182.028122,337.933319 184.189987,337.517609 
	C186.595367,337.055084 186.882629,339.358063 187.567825,341.039154 
	C190.822495,349.024384 190.583527,357.663483 191.892746,365.965851 
	C193.899429,378.691162 196.986511,390.709564 203.664520,401.907654 
	C207.821930,408.879059 212.830322,415.422577 215.711853,423.143066 
	C216.478348,425.196747 217.704132,427.362000 215.868317,429.207642 
	C213.486389,431.602386 214.390503,433.604919 215.901672,435.841400 
	C224.456406,448.502411 232.954437,461.201874 241.554169,473.832153 
	C242.726425,475.553802 243.803925,477.545288 246.137543,478.317505 
	C247.872849,477.053406 249.481567,475.598480 251.338684,474.610504 
	C253.095688,473.675720 255.330780,472.942932 256.613678,475.275360 
	C257.746124,477.334259 255.978439,478.542145 254.659454,479.859283 
	C253.253616,481.263092 250.740723,480.961182 249.822311,483.041534 
	C254.450836,487.872314 256.682159,488.400726 259.620361,485.472961 
	C266.417847,478.699585 270.534363,470.145508 275.201202,461.966461 
	C276.256042,460.117737 277.592865,458.021118 277.583466,456.044434 
	C277.541779,447.298553 282.011932,440.313568 285.865143,433.051514 
	C287.613098,429.757080 290.098053,426.492828 290.126862,422.810577 
	C290.170898,417.180298 291.146393,411.994019 293.686340,406.999420 
	C299.610718,395.349945 308.520050,385.355896 312.545746,372.626770 
	C313.371368,370.016205 315.766602,367.918274 318.833191,369.344940 
	C321.709076,370.682892 321.940796,373.538330 320.817352,376.236908 
	C320.047791,378.085480 319.087738,379.664703 319.601501,381.887299 
	C320.657288,386.454926 319.355804,390.727417 317.295593,394.810242 
	C314.773621,399.808167 311.688049,404.608551 309.297424,409.528442 
	C304.819672,418.743652 303.194519,429.225830 298.442505,438.480957 
	C298.154663,439.041565 297.869537,439.718628 299.114319,440.701569 
	C309.337585,434.361633 319.525909,427.694305 327.150696,417.803925 
	C334.886932,407.769043 341.887177,397.289734 345.747131,385.058167 
	C346.798370,381.727020 349.423645,381.589783 352.131927,381.506439 
	C354.882629,381.421844 355.783508,383.182739 356.224030,385.584991 
	C357.799164,394.174408 355.695404,401.409058 349.308044,407.634735 
	C340.864227,415.864807 333.008453,424.704529 324.460754,432.819641 
	C318.360657,438.611023 312.270538,444.714691 303.542725,446.755219 
	C297.417450,448.187256 292.456329,450.642944 289.322449,457.028076 
	C283.735168,468.412018 275.435791,478.116394 267.456207,487.908386 
	C258.775177,498.561218 247.708221,497.880798 240.487518,486.359894 
	C235.091721,477.750702 229.665100,469.157959 223.373337,461.190826 
	C217.138901,453.296265 211.061401,445.289062 205.472641,437.133270 
	C204.103455,437.492249 203.561295,438.182159 203.436859,439.005981 
	C202.164352,447.429535 199.556549,455.430389 196.465714,463.359283 
	C194.866470,467.461761 195.361740,471.360382 199.279800,474.951874 
	C203.407028,478.735168 206.251694,483.640747 203.998413,490.006317 
	C202.681900,493.725464 201.033798,494.818054 197.373642,493.090210 
	C186.295547,487.860626 186.293854,487.859741 180.743317,498.591187 
	C180.228760,499.585999 179.184326,500.410034 179.736023,501.929321 
	C181.199875,503.274292 183.232315,503.440613 185.168564,503.610504 
	C200.835968,504.985260 212.816696,513.325745 223.330475,524.124695 
	C227.984268,528.904724 227.900009,529.482117 233.000336,525.239502 
	C245.716278,514.661926 259.430756,514.349304 273.367249,521.667114 
	C278.278534,524.245911 279.788574,522.666931 282.146942,518.953918 
	C294.657715,499.257233 312.842285,488.487457 335.893280,486.244141 
	C354.969482,484.387665 372.586182,488.527557 387.685303,501.009949 
	C391.375214,504.060364 394.973083,507.222107 398.657501,510.370422 
	C402.016174,507.661774 405.260071,505.098236 408.445068,502.463593 
	C412.274994,499.295532 412.743408,495.999908 409.535278,492.068573 
	C401.266663,481.935913 399.454956,469.642456 397.937164,457.340302 
	C397.300079,452.176575 395.630432,447.642303 393.392822,442.810638 
	C388.408417,448.508026 388.412811,448.489746 380.414734,446.570068 
	C379.945984,446.457550 379.291962,446.971497 378.765594,447.267578 
	C375.258057,449.241119 374.167816,447.017059 373.919067,444.208954 
	C373.625732,440.897430 373.999542,437.579803 374.542175,434.267487 
	C375.931152,425.788727 375.194672,417.415985 371.819183,409.520874 
	C368.756042,402.356384 365.110077,395.440979 361.719238,388.416626 
	C360.764954,386.439728 360.543701,384.542877 362.537140,383.056549 
	C364.464813,381.619202 365.647095,382.873962 367.252258,384.068054 
	C375.781311,390.412750 379.988617,399.584167 383.980713,408.921051 
	C386.501465,414.816742 388.368042,420.943573 389.609985,427.723999 
	C393.757263,425.051575 393.969940,421.230804 394.896088,417.834137 
	C396.668793,411.332794 399.170898,404.852081 393.874847,398.553741 
	C392.786194,397.259064 391.926514,394.600861 394.187347,392.790527 
	C407.861267,403.633881 412.702209,420.223450 409.301941,430.450928 
	C406.202118,430.975006 405.915070,427.445709 403.503113,426.180725 
	C403.888245,431.890564 403.695221,437.281128 404.720856,442.428833 
	C406.565552,451.687805 409.604248,460.718201 411.267151,470.001190 
	C412.635620,477.640350 416.335480,483.593323 421.502411,488.964935 
	C428.438690,485.221802 434.723236,478.604156 437.709381,472.295105 
	C438.649841,470.308136 439.523895,468.168304 442.706116,468.349976 
	C447.617340,468.630371 455.060364,461.503174 454.615784,456.672302 
	C453.795502,447.758942 455.663940,439.157288 456.774658,430.455170 
	C456.980103,428.845673 456.859100,426.689362 459.034180,426.584229 
	C461.288513,426.475281 461.836792,428.552399 462.294617,430.371674 
	C463.407410,434.793610 462.976776,439.321930 463.215210,443.804321 
	C463.335785,446.071136 463.005707,448.496796 465.544037,450.330658 
	C469.445496,446.977325 473.231873,443.483185 477.272858,440.313568 
	C481.763245,436.791443 485.030365,432.823792 485.779541,426.820679 
	C486.225677,423.245636 488.450714,420.207397 491.598358,418.070404 
	C494.319214,420.055298 492.663086,423.355255 494.238556,425.344482 
	C496.697998,426.127014 498.661407,425.495331 500.392487,423.935638 
	C504.627869,420.119598 509.610962,417.406494 514.558472,414.723236 
	C517.719482,413.008850 519.045105,410.496490 519.573364,407.233490 
	C521.472168,395.506348 519.979492,383.745819 519.136108,372.097565 
	C518.727783,366.458923 517.612549,360.988922 519.064697,355.400665 
	C519.561096,353.490265 520.944885,351.426178 520.563110,349.740265 
	C519.120728,343.369965 519.523438,336.486023 515.364929,330.803864 
	C513.468750,328.212921 512.085938,324.696136 513.426453,321.915955 
	C515.300537,318.029266 513.673767,315.163727 512.349060,312.032074 
	C507.744049,301.145294 502.104553,290.852051 495.304535,281.138245 
	C485.318970,266.873962 475.594299,252.451538 458.469910,244.922058 
	C457.992615,247.987930 458.779083,251.016418 456.462189,253.367508 
	C453.570160,250.024933 452.069824,246.019821 450.128845,242.208740 
	C445.922974,233.950745 440.587921,226.435577 432.543915,221.415771 
	C429.905029,219.768982 425.398285,219.638412 429.180267,214.833298 
	C429.742188,214.119324 428.932251,213.259567 428.397125,212.637985 
	C421.447601,204.565598 414.943176,196.081726 405.821350,190.143219 
	C399.413879,185.971832 392.871643,182.108704 386.061584,178.611160 
	C376.088013,173.488892 366.744232,167.062515 355.187469,165.626648 
	C349.755554,164.951782 344.013367,164.572052 339.227783,161.872437 
	C326.950531,154.946686 313.294067,154.673035 300.127655,154.787689 
	C285.957520,154.911072 271.633301,155.568771 257.501343,158.273148 
	C240.217270,161.580688 222.791077,164.141571 206.590408,171.476608 
	C198.583099,175.102020 191.189575,180.059387 183.255249,183.673157 
	C165.743378,191.649109 151.306839,203.902832 136.497055,215.603806 
	C121.840485,227.183746 109.823196,241.412949 98.603981,256.316101 
	C94.360458,261.953003 90.499886,268.222382 88.888199,274.655090 
	C86.157051,285.555908 81.736259,295.742950 76.712341,305.387360 
	C67.273933,323.506378 62.293262,342.816650 58.700005,362.536804 
	C56.972755,372.016144 54.251266,380.666779 48.678345,388.431335 
	C47.789951,389.669128 47.075443,391.580414 44.803452,390.429138 
	C43.565815,386.230103 47.383305,382.938751 46.500713,378.615784 
	C40.711422,391.287506 34.842613,403.827118 25.546011,414.705780 
	C31.563124,414.843292 37.238186,415.023682 42.857780,413.628632 
	C48.643867,412.192291 54.262657,409.949677 60.326061,409.802887 
	C62.017082,409.761993 63.798695,409.919800 64.730591,411.579315 
	C65.689415,413.286743 64.858566,414.820190 63.684654,416.112305 
	C61.914688,418.060394 61.032135,420.257172 61.227982,422.931183 
	C62.101246,434.854156 62.750557,446.796387 63.818405,458.701385 
	C64.914284,470.918915 66.483543,483.059875 69.024010,495.113831 
	C71.778580,508.183655 74.829994,521.054260 81.403893,532.808533 
	C83.131950,535.898315 84.000000,539.543335 87.018974,542.350586 
	C87.426285,534.449036 82.021355,527.451599 85.227554,519.743286 
	C93.964813,532.186584 96.457184,547.521851 105.364777,559.765625 
	C104.065002,555.455994 103.083832,551.180359 102.790489,546.743835 
	C102.211388,537.985657 101.181259,529.245728 100.915604,520.480652 
	C100.159164,495.522980 100.951004,470.629608 105.352226,445.971924 
	C105.572563,444.737518 106.426628,443.571625 107.149590,442.482666 
	C108.082664,441.077209 109.173470,439.677795 111.194504,440.324432 
	C113.208839,440.968964 113.297897,442.663300 113.210701,444.403320 
	C112.960678,449.391937 112.190712,454.552185 118.122490,457.229187 
	C118.754021,457.514191 119.274948,458.517242 119.446274,459.277496 
	C121.721321,469.373688 126.550369,478.439697 130.929443,487.669556 
	C140.464935,507.767792 151.890305,526.432678 170.930771,539.181885 
	C172.003006,539.899841 172.694366,541.162720 173.675171,542.047607 
	C174.699142,542.971436 175.654816,544.286682 177.686447,543.547607 
	C174.679184,537.074585 171.155914,531.046997 169.043289,524.382263 
	C168.481125,522.608826 166.946884,521.745117 165.042130,522.886230 
	C161.039703,525.283875 159.595749,523.064148 158.085388,519.618896 
	C156.804611,516.697327 157.415436,513.970947 157.988220,511.322876 
	C158.702637,508.019989 158.091949,506.301605 154.867081,504.651520 
	C149.204117,501.753937 146.212769,496.363525 142.847198,490.260864 
	C147.857452,490.765320 149.270050,495.715088 153.455460,495.860474 
	C151.803238,490.899780 150.292023,486.362427 148.554520,481.079224 
M408.768585,588.189758 
	C408.471741,588.966003 408.250031,589.781616 407.867126,590.512817 
	C393.310455,618.309509 360.662537,636.223267 328.045929,628.535400 
	C301.735443,622.333923 284.226562,606.891296 274.692474,581.821594 
	C270.116180,569.788330 270.379730,557.399048 271.194794,544.913147 
	C271.269226,543.772705 272.088287,542.315674 271.068329,541.592712 
	C266.189148,538.134338 260.978973,534.531067 254.856552,535.080078 
	C249.863129,535.527893 245.019272,537.638550 240.279358,539.747681 
	C236.023666,541.641357 235.634979,544.007263 236.812622,547.994934 
	C238.540878,553.847107 240.152420,559.860352 240.103531,565.977722 
	C239.960831,583.828247 234.140152,599.689697 221.284454,612.244995 
	C210.999817,622.289307 198.773590,628.412598 184.070175,630.689697 
	C173.747192,632.288330 164.428421,630.494385 154.813599,628.194092 
	C148.462067,626.674561 143.426086,622.353882 136.258362,619.228943 
	C143.580978,631.069397 147.252701,643.279724 153.805389,654.215820 
	C160.862045,665.992920 167.473038,678.078857 172.495804,690.932251 
	C173.252075,692.867615 174.545044,694.508850 176.550064,695.095764 
	C184.392914,697.391541 189.912689,703.523987 196.897568,707.227234 
	C204.382370,711.195374 210.358322,717.257568 217.221420,722.077881 
	C226.333847,728.478088 235.797211,734.303955 245.672012,739.546631 
	C263.034027,748.764404 280.598541,756.961121 300.360229,759.887817 
	C308.171600,761.044556 314.481293,758.366943 320.424896,754.713562 
	C327.374451,750.441772 334.488159,746.775757 342.107178,743.939880 
	C345.673553,742.612427 349.052307,740.914795 351.814270,738.044800 
	C360.037384,729.499939 369.159363,722.012451 379.285767,715.813721 
	C384.461090,712.645630 389.027740,708.640991 392.824097,704.099731 
	C408.259186,685.636108 424.686310,667.988342 438.938812,648.548279 
	C442.315247,643.942932 445.448090,639.158997 449.519836,633.259033 
	C444.909332,634.624146 441.625671,635.518372 438.383362,634.963623 
	C434.894440,634.366821 432.261353,635.165222 429.902924,637.785095 
	C428.760345,639.054321 427.205627,640.892395 425.250824,639.405945 
	C423.237579,637.875122 424.274384,635.970642 425.235260,634.056458 
	C427.268677,630.005615 430.768555,626.785217 432.444336,621.402893 
	C424.400513,626.085999 415.490082,622.759338 408.043945,627.973206 
	C407.104523,623.726013 408.549347,621.206360 410.640320,618.986755 
	C412.389862,617.129578 413.199493,615.242676 412.204865,612.676758 
	C410.363373,607.926147 411.734619,603.743835 414.461090,599.651306 
	C416.768768,596.187439 420.068695,593.329834 421.683685,589.473877 
	C419.903229,588.095886 418.164795,589.874817 417.004181,588.379822 
	C415.210907,586.079712 419.580933,583.666016 417.017822,581.591492 
	C414.974457,579.937561 415.991699,578.521179 416.537506,576.760315 
	C418.146393,571.569458 420.988647,566.755249 421.529785,561.030945 
	C419.742279,559.989563 416.492035,560.738281 417.043976,557.028992 
	C418.216217,549.150818 418.651398,541.159485 422.242401,533.789551 
	C425.540558,527.020691 422.581146,520.078003 422.551208,512.965515 
	C418.592590,517.392578 414.091736,520.775696 410.024445,524.627197 
	C408.797791,525.788757 408.395416,526.950500 409.183472,528.609558 
	C411.402313,533.280823 412.760345,538.220215 413.820648,543.289856 
	C417.015594,558.565796 415.615875,573.305664 408.768585,588.189758 
M387.101227,508.414612 
	C372.573853,495.297455 355.595367,490.340485 336.139404,492.037903 
	C315.113983,493.872314 299.922882,504.704102 287.874054,521.125366 
	C282.662354,528.228455 278.672119,536.262390 277.727386,544.713562 
	C276.580872,554.969971 276.064667,565.463318 279.141968,575.875244 
	C283.714325,591.345642 292.318054,603.658936 305.296936,612.968994 
	C318.298645,622.295471 333.074677,624.607971 348.728607,623.903564 
	C359.324677,623.426697 369.035034,620.267212 377.645844,614.568665 
	C398.673126,600.652893 409.835663,581.440979 408.934753,555.491821 
	C408.284027,536.748535 401.110535,521.499451 387.101227,508.414612 
M553.910522,432.601501 
	C543.768005,425.066956 531.683533,423.806519 519.758850,422.537201 
	C514.672668,421.995819 511.038025,426.313110 507.177948,429.109802 
	C495.960358,437.237091 487.541901,446.607086 486.787842,461.921265 
	C486.168793,474.493347 485.561890,487.104980 484.744507,499.686249 
	C484.474396,503.843872 481.813568,507.867737 484.292175,512.245300 
	C484.945923,513.399963 483.526123,514.637878 482.344452,515.387695 
	C480.908508,516.298889 479.824890,515.623657 478.812531,514.619995 
	C472.103668,507.968842 465.495728,501.483978 462.410645,491.927429 
	C460.793243,486.917297 459.849121,481.448242 456.955444,476.176819 
	C452.294800,480.366394 448.061981,484.072601 443.964386,487.922729 
	C442.908630,488.914673 441.557861,490.367554 441.571747,491.594818 
	C441.650238,498.524902 434.245575,504.124878 438.059967,511.691467 
	C438.360016,512.286621 437.865295,513.308044 437.680450,514.117737 
	C436.755920,518.167358 435.431122,522.169678 434.970795,526.269958 
	C434.399872,531.355896 432.386841,536.824768 437.374542,541.187134 
	C438.525055,542.193359 438.350189,544.012695 437.623627,545.434692 
	C434.983093,550.602661 438.243256,555.852722 436.926575,561.138062 
	C440.440918,558.244568 445.265015,557.879211 447.338684,553.481750 
	C448.139221,551.784180 450.364349,551.388794 452.158600,552.727295 
	C454.007019,554.106201 454.220001,555.929504 453.423798,558.073669 
	C447.268402,574.649780 440.373810,590.748230 428.314575,604.190735 
	C425.213043,607.648010 421.460571,610.935059 419.767548,615.671387 
	C421.367889,616.195618 422.664032,615.470825 423.693420,614.866028 
	C430.332306,610.965942 437.592041,609.246399 445.105103,608.105042 
	C448.102783,607.649658 449.355225,608.914429 449.287720,611.456848 
	C449.201447,614.708923 450.456940,617.116699 452.577454,619.231995 
	C460.797485,615.924744 464.096924,612.686035 466.946808,605.001648 
	C467.555328,603.360840 468.309753,601.836243 469.901520,601.168518 
	C472.968048,599.882141 474.641876,597.291138 475.572113,594.508728 
	C479.207581,583.634521 486.539886,574.787720 491.592834,564.688232 
	C495.717285,556.444519 496.167053,556.556702 486.645142,554.558655 
	C482.253235,553.637146 477.741028,553.432007 474.416229,549.706177 
	C471.339905,546.258789 470.585083,541.717834 468.535309,537.794739 
	C467.648987,536.098328 466.892639,532.423523 470.846863,532.036804 
	C474.074493,531.721191 477.519287,531.692627 478.641663,535.929688 
	C479.377838,538.708923 486.212311,542.784424 487.041138,541.091492 
	C489.597626,535.869629 494.966370,533.587158 498.271423,529.274719 
	C499.191040,528.074768 499.681519,526.510620 501.640656,527.094055 
	C502.825134,527.446838 503.732300,528.185974 503.999786,529.440247 
	C504.377716,531.212280 503.110626,532.068726 501.987946,533.121338 
	C498.060608,536.803589 494.451172,540.821594 489.704987,543.878906 
	C492.297760,546.172791 494.588715,546.249268 497.136200,545.230530 
	C497.146332,542.401978 496.927887,539.509644 499.882629,538.335938 
	C502.625153,539.345581 500.300446,541.735291 501.494812,543.084351 
	C504.481659,541.217896 504.667206,535.891785 508.846924,536.939880 
	C511.905060,537.706726 513.344055,536.439941 514.730042,534.671448 
	C518.718933,529.581726 523.263916,524.908569 526.364990,519.139709 
	C529.568359,513.180542 531.642639,506.619385 535.598633,501.081024 
	C544.973572,487.956390 553.275879,474.575409 557.391174,458.482117 
	C559.822510,448.973877 560.388733,441.035217 553.910522,432.601501 
M157.506149,623.140747 
	C159.627396,623.497314 161.798706,623.672119 163.861725,624.240173 
	C177.084961,627.881409 189.646835,625.178467 201.390518,619.274292 
	C228.716217,605.536194 239.425476,577.637329 231.265656,549.603210 
	C226.649109,533.742493 215.948944,522.213989 201.264404,514.586487 
	C194.427979,511.035461 187.054276,509.149689 179.414032,508.263672 
	C174.139374,507.652008 173.122421,512.336365 170.651566,515.226562 
	C168.637070,517.582886 170.520142,519.034485 171.778351,520.775024 
	C179.913025,532.027832 186.325546,544.445862 195.096619,555.273132 
	C196.177826,556.607727 197.104568,558.131958 195.729446,559.759949 
	C194.544754,561.162537 192.714844,560.873230 191.584946,560.074280 
	C188.775192,558.087524 185.340073,558.303040 182.464157,557.132324 
	C171.281357,552.580566 161.615051,545.689331 153.795517,536.357910 
	C150.922745,532.929626 147.952698,529.582886 144.335159,525.398804 
	C145.758286,535.887695 146.961472,545.048157 148.253616,554.196045 
	C149.523315,563.185120 152.565445,572.113220 149.039108,582.329590 
	C137.835602,573.146545 128.601791,563.032104 119.741837,551.823730 
	C112.360741,577.478027 122.475151,609.778870 157.506149,623.140747 
M109.292976,476.251709 
	C109.235497,487.402161 109.172813,498.552582 109.123825,509.703064 
	C109.109894,512.874695 109.283463,515.693848 112.173798,518.154846 
	C114.608467,520.227905 116.613640,523.247681 117.816193,526.246521 
	C122.291931,537.407654 128.355057,547.562500 135.871628,556.900269 
	C137.671921,559.136719 138.392853,562.266602 141.347855,563.780273 
	C142.396713,561.585388 141.638962,559.696411 141.250793,557.783630 
	C139.219025,547.771973 138.113495,537.619507 136.582840,527.532471 
	C135.456848,520.112183 135.812912,512.231445 130.884186,505.690735 
	C124.844200,497.675293 120.758865,488.601990 116.729424,479.446777 
	C114.475464,474.325684 114.030785,468.728271 111.682739,463.124146 
	C110.094383,467.499603 109.665779,471.448883 109.292976,476.251709 
M196.666550,417.829163 
	C190.071106,400.705597 182.587143,383.840851 181.663635,365.021912 
	C180.875534,371.365295 181.854553,377.670258 180.764114,384.039337 
	C178.031723,383.257660 178.528519,379.823029 175.750381,380.244293 
	C174.200928,381.585388 174.217590,383.449432 174.116409,385.262482 
	C173.728989,392.203735 176.654327,398.501495 177.996567,405.106842 
	C178.525070,407.707611 180.130920,410.348907 178.007141,412.618744 
	C175.766022,413.147308 176.300690,410.550751 174.543198,410.570953 
	C179.455887,425.815155 184.327850,440.932922 189.199799,456.050690 
	C193.696762,447.548309 196.242950,439.234619 197.963562,430.589905 
	C198.824234,426.265839 198.925797,422.444183 196.666550,417.829163 
M63.017982,549.791565 
	C64.202362,555.391602 66.072716,560.717957 69.245522,566.211731 
	C72.150436,557.447327 67.804428,548.056763 73.945900,540.235596 
	C68.094444,527.623108 61.585678,514.899231 61.459797,500.144562 
	C61.442589,498.127777 60.653431,495.638458 58.131027,494.698975 
	C54.901272,499.298065 56.271244,504.195099 56.131214,508.855835 
	C55.716221,522.668335 56.941914,536.237244 63.017982,549.791565 
M236.563354,530.065125 
	C236.185303,530.390381 235.772522,530.683411 235.435364,531.046631 
	C234.122726,532.460571 230.402802,532.762512 232.028351,535.497009 
	C233.702515,538.313354 235.854904,535.404419 237.513184,534.539062 
	C248.296753,528.911316 259.091553,527.069641 270.127228,533.794250 
	C271.884735,534.865295 273.510406,535.247620 274.690430,532.946472 
	C275.904785,530.578308 274.720642,529.158936 272.818542,528.045410 
	C262.632507,522.082397 247.953766,520.106812 236.563354,530.065125 
M157.767670,461.834351 
	C154.162521,457.132019 148.836960,454.485718 144.580978,450.482422 
	C148.218506,462.274902 152.996155,473.405731 159.085754,484.197083 
	C160.042953,480.046936 160.485672,475.928619 160.839752,471.802673 
	C161.134583,468.367096 160.459244,465.175201 157.767670,461.834351 
M177.728622,482.898895 
	C176.845764,479.186310 173.628906,477.774475 170.533371,475.086548 
	C166.648743,487.785095 167.284775,500.535217 163.815781,512.573303 
	C166.992325,507.979858 170.130264,503.443024 172.192612,498.460938 
	C174.198044,493.616364 177.136963,489.055084 177.728622,482.898895 
M473.550415,464.496613 
	C473.687714,463.392029 474.282043,461.820129 472.155945,462.429260 
	C469.156677,463.288635 466.457397,468.187347 467.452942,471.365845 
	C469.375763,477.504791 471.565186,483.561066 473.701019,489.631531 
	C473.981445,490.428589 474.697815,490.933990 476.365326,490.693359 
	C477.406952,485.223969 475.512421,479.516907 476.240692,473.897430 
	C476.296021,473.470459 475.529205,472.791718 475.000580,472.458282 
	C471.968781,470.546082 471.999634,467.973633 473.550415,464.496613 
M382.500061,423.738922 
	C382.178284,430.061798 381.297241,436.372375 381.783386,443.071381 
	C390.190247,433.196777 390.190247,433.196777 382.500061,423.738922 
M112.795677,533.874512 
	C112.842995,530.829773 110.911583,528.673096 109.051582,525.276611 
	C110.095665,534.197876 109.870155,542.185791 111.957611,551.310730 
	C112.937531,549.225708 113.249496,548.494324 113.616615,547.791687 
	C115.983459,543.261963 112.234230,539.122009 112.795677,533.874512 
M499.827240,263.801392 
	C495.660645,255.229172 488.144531,250.385941 479.816315,246.437195 
	C486.333069,252.194153 492.849823,257.951141 499.827240,263.801392 
M429.629242,504.625671 
	C431.404694,503.302948 432.433105,501.611298 432.610535,498.876434 
	C430.111420,500.008209 428.731812,501.614594 427.733917,503.460846 
	C427.108795,504.617401 427.680145,505.350983 429.629242,504.625671 
z"/>
<path fill="#000000" opacity="1.000000" stroke="none" 
	d="
M540.857422,865.984375 
	C537.826294,868.034119 537.196960,871.556152 534.906860,874.016602 
	C529.625244,879.691101 525.451660,880.268005 519.330383,875.681702 
	C516.936218,873.887817 514.585144,872.036438 511.898163,869.967712 
	C508.497803,874.620667 505.400909,872.570251 502.163544,869.585022 
	C499.854950,867.456177 497.239929,865.659668 494.300201,863.352722 
	C490.741119,867.733643 485.966400,869.303833 480.710815,869.862000 
	C478.808777,870.063965 477.481079,871.345825 476.276459,872.840454 
	C471.762329,878.440918 471.174377,878.493042 464.780212,874.649841 
	C464.082153,874.230286 463.312225,873.930420 462.057434,873.325012 
	C460.636383,878.108215 459.409393,882.692200 457.904694,887.183044 
	C456.193604,892.290100 453.013855,895.471741 447.244446,894.105652 
	C439.459290,918.877502 421.414093,932.817383 398.172607,939.980225 
	C383.987518,944.351990 370.174713,939.825439 357.975830,931.517212 
	C353.723694,928.621094 349.889893,925.100098 345.944763,921.769958 
	C344.699615,920.719055 343.244110,919.408447 344.497070,917.533264 
	C345.733643,915.682739 347.447357,916.457642 348.957214,917.202087 
	C358.127014,921.723633 367.743591,923.840881 377.992584,922.857971 
	C381.121979,922.557861 384.168457,922.150879 387.917938,919.796509 
	C377.500763,917.109924 370.814301,910.256714 363.574005,904.287476 
	C354.979675,897.201843 353.584473,890.518005 358.817047,883.704529 
	C364.837494,875.864868 377.372101,873.238342 384.739044,878.517334 
	C388.928772,881.519714 392.811798,884.953552 396.791931,888.242859 
	C398.051758,889.283997 399.640167,890.359741 398.490845,892.366699 
	C397.486847,894.119873 395.898773,893.332764 394.461487,893.073730 
	C386.928619,891.715759 378.907196,896.111633 377.066681,902.678711 
	C378.952118,904.564758 381.573517,904.541443 383.938965,905.136047 
	C388.515106,906.286133 392.951630,907.777161 396.381775,911.157959 
	C399.252930,913.987793 401.663239,913.704773 404.474182,911.024780 
	C407.226044,908.401062 410.320587,906.136780 413.298401,903.687012 
	C412.047729,900.805420 409.492859,899.687073 407.518585,898.020630 
	C400.871399,892.409912 399.919708,885.005676 404.937439,877.044495 
	C409.749542,869.409485 418.850433,866.320435 426.124634,869.974915 
	C427.891632,870.862488 429.481354,872.127808 431.085175,873.310852 
	C435.623230,876.658630 436.969818,876.273499 438.631897,870.727417 
	C439.777069,866.906189 440.475372,862.949463 441.654602,859.140320 
	C443.404053,853.489014 446.131500,852.406006 450.842041,855.998169 
	C454.111664,858.491577 456.442902,859.126099 458.987518,855.394714 
	C459.934631,854.005859 461.480255,853.124878 463.167480,852.835999 
	C468.158752,851.981323 472.517883,850.260193 476.504944,846.758667 
	C480.451538,843.292786 484.644104,845.994629 488.405029,848.332092 
	C489.097443,848.762390 489.857758,849.083557 491.143463,849.738892 
	C494.294464,843.990112 495.140991,837.795959 495.774170,831.652466 
	C496.627167,823.376648 497.054810,815.056702 498.764008,806.886902 
	C499.036133,805.586060 499.337708,804.282227 499.753723,803.022034 
	C502.716431,794.048401 505.380524,793.226501 512.529297,799.031799 
	C515.244873,801.237000 517.840149,803.621338 520.721863,805.583984 
	C525.533081,808.860779 526.672302,813.128418 525.421387,818.624756 
	C523.891907,825.345032 520.690186,831.407349 518.401428,837.823425 
	C516.456177,843.276489 515.377930,848.713623 517.621033,854.861877 
	C520.747986,851.824890 521.583496,847.925354 523.129333,844.444763 
	C525.544556,839.006897 526.888245,838.613159 531.511292,842.292969 
	C535.290894,845.301514 539.026917,848.365479 542.747986,851.446228 
	C543.635620,852.180969 544.901428,852.964233 545.117615,853.922729 
	C546.550293,860.274902 549.327515,865.751160 554.418518,869.971741 
	C555.241760,870.654297 555.192261,871.821472 554.467041,872.698975 
	C553.411438,873.976318 552.060913,873.825562 550.880737,873.007446 
	C547.603516,870.735474 544.398376,868.359436 540.857422,865.984375 
z"/>
<path fill="#000000" opacity="1.000000" stroke="none" 
	d="
M510.178650,164.267181 
	C502.992096,168.203049 495.038208,169.276901 488.319794,173.427292 
	C478.242737,179.652512 468.346466,186.067139 460.847290,195.467514 
	C457.324188,199.883789 452.656403,202.748474 447.689423,206.319733 
	C446.795471,202.210556 446.669373,199.240616 447.708771,195.629227 
	C453.911469,174.078751 471.925842,166.355377 490.085754,159.018326 
	C496.945679,156.246750 503.950958,153.451401 511.387268,152.289978 
	C512.860901,152.059830 514.350281,151.871185 515.838501,151.807907 
	C517.866455,151.721680 519.384338,152.610718 520.159363,154.544830 
	C520.957031,156.535446 520.172852,158.189713 518.762756,159.500290 
	C516.406677,161.690033 513.455872,162.904358 510.178650,164.267181 
z"/>
<path fill="#000000" opacity="1.000000" stroke="none" 
	d="
M395.984222,736.555054 
	C396.533844,730.854736 397.001862,725.575378 399.589966,720.606201 
	C401.707092,724.132935 401.714325,727.976379 402.182892,731.788513 
	C404.897522,753.875916 403.215240,776.247986 406.437866,798.271179 
	C407.559784,805.938293 408.639160,813.732788 411.782104,820.984070 
	C412.103516,821.725586 412.309753,822.606323 412.258606,823.402527 
	C412.127441,825.444519 412.971771,828.190857 410.138916,828.876526 
	C407.447968,829.527771 406.194946,827.083191 405.564941,825.136719 
	C403.217773,817.884888 401.459534,810.500610 400.106873,802.955811 
	C397.330536,787.470276 398.442017,771.834290 397.265045,756.320068 
	C396.777161,749.888733 395.991943,743.469299 395.984222,736.555054 
z"/>
<path fill="#000000" opacity="1.000000" stroke="none" 
	d="
M400.841919,239.158813 
	C388.618896,224.666656 376.463409,210.622040 361.973267,198.778488 
	C354.384583,192.575836 345.319000,189.147125 336.808624,184.696976 
	C332.826416,182.614624 328.871521,180.526932 325.078949,178.129578 
	C323.478607,177.117996 321.958740,175.759186 322.331787,173.742172 
	C322.749756,171.482269 324.888123,170.502747 326.852539,170.454544 
	C329.249817,170.395706 331.113861,169.594315 333.272736,168.659256 
	C337.414551,166.865326 340.934479,170.064133 344.227020,171.925171 
	C362.049896,181.999191 376.329163,196.475662 390.888092,210.520416 
	C401.162598,220.432068 410.972626,230.835175 417.617432,243.712372 
	C418.900482,246.198807 421.782379,249.440308 418.972717,251.500015 
	C416.039429,253.650360 413.935120,249.538132 412.456329,247.614700 
	C409.400452,243.639938 406.583374,239.811966 400.841919,239.158813 
z"/>
<path fill="#000000" opacity="1.000000" stroke="none" 
	d="
M239.062683,179.312119 
	C224.108627,184.126801 211.420578,192.184097 199.337891,201.397125 
	C191.693481,207.225983 183.654663,212.545578 176.113556,218.499893 
	C166.130890,226.382034 154.838730,232.759109 147.100754,243.294861 
	C145.293381,245.755737 142.555634,247.608353 139.905640,245.374985 
	C137.221512,243.112823 139.431183,240.461212 141.125061,238.417587 
	C156.455185,219.922455 175.030304,205.223206 195.176468,192.374359 
	C204.271790,186.573547 213.326172,180.720963 223.415466,176.683151 
	C231.092438,173.610794 238.743866,170.457092 246.905151,168.943558 
	C249.397339,168.481400 251.685059,167.651611 254.038544,166.837936 
	C256.769562,165.893738 259.636597,164.795914 263.584442,167.728043 
	C255.012955,171.773636 247.210464,175.456268 239.062683,179.312119 
z"/>
<path fill="#000000" opacity="1.000000" stroke="none" 
	d="
M490.668732,350.269836 
	C484.543518,331.108337 477.789215,312.584534 466.975525,296.002472 
	C462.357056,288.920349 457.098328,282.302338 454.013397,274.332855 
	C453.670074,273.445892 453.538635,272.476898 453.318268,271.583862 
	C455.683929,269.891693 456.718658,271.509644 458.038666,272.816742 
	C468.266693,282.944580 476.368805,294.860596 483.798584,306.920746 
	C491.832611,319.961792 498.519226,334.032440 498.441467,350.223236 
	C498.419678,354.759552 500.601318,359.240570 500.171997,363.978638 
	C499.961792,366.298553 500.208649,369.165161 497.112305,369.391937 
	C494.059540,369.615601 494.342529,366.666199 493.897675,364.658539 
	C492.862366,359.986053 491.882538,355.301270 490.668732,350.269836 
z"/>
<path fill="#000000" opacity="1.000000" stroke="none" 
	d="
M80.348137,464.534302 
	C80.941101,468.881012 78.394699,472.668732 79.898499,476.736420 
	C80.321564,477.880737 79.115997,478.902374 77.752884,478.919800 
	C76.424507,478.936798 75.893936,478.150055 75.446823,476.830872 
	C71.085838,463.964417 73.741180,450.517517 72.135361,437.421875 
	C71.655571,433.509186 74.499695,430.101715 74.938301,425.989624 
	C76.343613,412.814087 76.131821,399.384430 79.967850,386.538727 
	C81.303490,382.066101 82.977890,377.599487 88.031662,375.045746 
	C85.542328,404.826294 81.761688,434.386536 80.348137,464.534302 
z"/>
<path fill="#000000" opacity="1.000000" stroke="none" 
	d="
M82.208130,326.047668 
	C80.912186,326.114594 79.949097,326.114594 79.267120,326.114594 
	C81.996956,297.505524 99.101547,277.181915 117.309898,255.980530 
	C119.535248,260.691071 119.139580,263.502258 117.313568,266.373993 
	C109.496613,278.667847 101.485985,290.850433 94.087799,303.393188 
	C90.843689,308.893188 88.758003,315.104736 86.435890,321.105286 
	C85.600967,323.262787 84.551331,324.920013 82.208130,326.047668 
z"/>
<path fill="#000000" opacity="1.000000" stroke="none" 
	d="
M466.127991,328.550049 
	C466.888824,325.994812 468.024231,324.872894 470.011871,326.996246 
	C471.141876,328.203400 472.429382,329.473511 472.996338,330.962616 
	C476.238647,339.478729 482.296021,346.707764 484.685638,355.526428 
	C488.095032,368.108490 491.912628,380.738556 489.142059,394.070404 
	C488.974945,394.874542 488.661407,395.654572 488.350586,396.419250 
	C488.234467,396.704834 487.931213,396.914307 487.572876,397.315796 
	C484.768921,396.832031 484.110535,394.599518 483.590942,392.341766 
	C482.697571,388.459351 481.469971,384.591919 481.134918,380.654175 
	C479.934082,366.541138 473.280884,354.113403 469.273041,340.874695 
	C468.076965,336.923889 467.141296,332.894257 466.127991,328.550049 
z"/>
<path fill="#000000" opacity="1.000000" stroke="none" 
	d="
M142.126343,396.253601 
	C137.679062,380.903748 136.257935,365.758911 139.235886,350.250824 
	C140.208679,345.184845 140.914139,340.091553 142.867233,335.300018 
	C143.743195,333.150970 144.871277,330.606750 147.868439,331.620056 
	C150.887817,332.640930 149.620697,335.363342 149.055130,337.205627 
	C144.050217,353.508270 146.402817,369.655792 149.813385,385.799530 
	C150.719986,390.090912 149.113083,393.651978 146.611740,396.920471 
	C145.100433,398.895264 143.584976,398.695740 142.126343,396.253601 
z"/>
<path fill="#000000" opacity="1.000000" stroke="none" 
	d="
M238.160828,409.926025 
	C239.859619,419.828186 240.742004,429.343781 240.755966,438.954895 
	C240.758133,440.447144 240.907013,441.649689 239.317993,442.125092 
	C237.598557,442.639496 236.701431,441.417480 236.548462,440.051483 
	C235.292847,428.838776 227.717041,419.806763 225.874390,408.833923 
	C225.600555,407.203247 223.200119,405.209564 226.043747,403.758148 
	C228.222000,403.232666 227.659256,406.277985 229.439682,406.122131 
	C230.344696,405.627014 230.340103,404.792664 230.304550,403.949982 
	C230.005936,396.871765 229.738190,389.791931 229.370972,382.717285 
	C229.315796,381.654236 229.095001,380.590973 230.344315,380.306763 
	C231.840469,379.966400 232.115845,381.056183 232.534225,382.301392 
	C235.503983,391.139832 237.246948,400.217194 238.160828,409.926025 
z"/>
<path fill="#000000" opacity="1.000000" stroke="none" 
	d="
M471.433960,388.869080 
	C472.365234,402.076202 472.422607,414.820099 469.842133,427.434326 
	C469.509857,429.058563 469.739380,431.612793 467.237579,431.614746 
	C465.024506,431.616455 464.351227,429.447754 464.170532,427.640564 
	C463.032013,416.253174 462.751801,404.878052 465.123444,393.577972 
	C465.495605,391.804779 465.486572,389.945526 465.925018,388.193970 
	C466.347015,386.508148 466.472473,384.112915 468.891479,384.218323 
	C471.364014,384.326050 471.083221,386.696320 471.433960,388.869080 
z"/>
<path fill="#000000" opacity="1.000000" stroke="none" 
	d="
M275.827881,403.956238 
	C276.516602,401.717926 276.758698,399.548157 279.669159,399.407532 
	C281.738831,401.702484 281.416534,404.516113 280.816467,407.210022 
	C277.959076,420.037567 273.635681,432.291290 266.521362,443.465057 
	C265.269073,445.431946 264.075073,447.498901 261.596558,446.318481 
	C258.710144,444.943787 260.552429,442.520020 261.266052,440.688416 
	C266.001038,428.535339 271.930725,416.858582 275.827881,403.956238 
z"/>
<path fill="#000000" opacity="1.000000" stroke="none" 
	d="
M276.204132,430.595764 
	C280.748779,415.893768 286.203766,401.855164 291.970673,387.936371 
	C292.618561,386.372650 292.831116,383.638824 295.201324,384.202637 
	C298.170685,384.908875 296.051483,387.216644 295.746307,388.724701 
	C293.084259,401.877563 289.401581,414.734619 284.058746,427.068604 
	C283.345764,428.714539 282.118042,430.143829 281.085480,431.643677 
	C279.048035,434.603210 277.479706,434.082672 276.204132,430.595764 
z"/>
<path fill="#000000" opacity="1.000000" stroke="none" 
	d="
M514.349487,377.295807 
	C515.237061,382.164459 516.214294,386.697113 513.648682,391.034821 
	C509.444092,389.046509 507.311493,379.714539 510.093170,376.507935 
	C511.561279,374.815521 512.973389,375.303253 514.349487,377.295807 
z"/>
<path fill="#000000" opacity="1.000000" stroke="none" 
	d="
M512.170776,351.242432 
	C512.632263,355.432800 515.384460,359.051849 513.349060,363.142792 
	C510.750763,363.571838 510.001984,361.742889 509.629669,360.022186 
	C508.999023,357.107758 508.161530,354.326294 506.901276,351.605469 
	C506.275665,350.254883 505.347961,348.117401 507.222778,347.113892 
	C509.406006,345.945251 510.368591,348.086487 511.393829,349.546600 
	C511.675476,349.947723 511.846405,350.426575 512.170776,351.242432 
z"/>
<path fill="#000000" opacity="1.000000" stroke="none" 
	d="
M505.023926,313.808105 
	C502.287201,308.486450 496.637756,305.443970 495.055634,298.990112 
	C504.497589,300.305542 503.363068,310.116791 509.106232,313.613098 
	C507.555634,316.326691 506.416779,314.924042 505.023926,313.808105 
z"/>
<path fill="#000000" opacity="1.000000" stroke="none" 
	d="
M263.002533,479.032349 
	C261.939392,480.423859 261.180145,482.067352 259.405609,481.218842 
	C257.890137,480.494171 258.421661,479.004120 258.818054,477.781372 
	C259.337585,476.178925 260.630890,475.344513 262.188843,475.650146 
	C263.996582,476.004822 263.658051,477.441864 263.002533,479.032349 
z"/>
<path fill="#000000" opacity="1.000000" stroke="none" 
	d="
M262.439087,687.229309 
	C264.208588,687.937439 265.740631,688.492859 265.319763,690.471375 
	C265.007843,691.937683 263.827972,692.764099 262.455963,692.911255 
	C255.822433,693.623108 249.166977,693.524170 242.550034,692.806824 
	C240.775513,692.614502 239.188599,691.404358 238.830948,688.285339 
	C246.547241,686.959595 254.236099,686.177124 262.439087,687.229309 
z"/>
<path fill="#000000" opacity="1.000000" stroke="none" 
	d="
M251.928009,632.618530 
	C251.561981,633.972290 251.435730,634.995056 251.030334,635.891663 
	C249.118179,640.120422 248.953079,642.982483 255.084641,642.351501 
	C256.518829,642.203857 258.183411,643.446472 259.605896,644.281372 
	C260.932373,645.059875 263.218811,645.537720 262.450104,647.709778 
	C261.708221,649.806030 259.443756,649.679871 257.689606,649.431152 
	C249.795380,648.312134 245.400970,641.642273 247.656204,633.976868 
	C249.514038,627.662170 251.753296,621.459778 254.521362,615.363770 
	C255.174515,621.230896 252.807846,626.619629 251.928009,632.618530 
z"/>
<path fill="#000000" opacity="1.000000" stroke="none" 
	d="
M536.714355,435.171326 
	C540.484924,436.644165 543.861511,438.058289 546.315613,440.933746 
	C547.410767,442.216827 548.391479,443.762634 547.239014,445.423859 
	C546.260803,446.833832 544.560974,446.600433 543.102722,446.373169 
	C542.158691,446.226044 541.126953,445.855347 540.393066,445.263977 
	C530.085144,436.957153 520.443542,438.707855 510.839417,446.721436 
	C507.305511,449.670135 503.097687,451.813019 499.186096,454.306030 
	C498.055420,455.026703 496.891479,455.747040 495.537048,454.614685 
	C494.889526,452.683167 496.259399,451.359039 497.317841,450.285767 
	C504.079071,443.429779 511.106659,436.964020 520.164978,433.039093 
	C526.132568,430.453308 531.151428,432.896942 536.714355,435.171326 
z"/>
<path fill="#000000" opacity="1.000000" stroke="none" 
	d="
M501.242126,507.115784 
	C498.994110,511.210663 497.729919,515.432434 494.377258,518.437195 
	C492.866272,519.791443 491.323914,520.971497 489.362793,521.574524 
	C487.764191,522.066101 486.041473,522.869812 484.781708,521.215332 
	C483.278076,519.240601 484.914795,517.867249 486.087006,516.477356 
	C488.634094,513.457397 491.462433,510.794373 493.570648,507.265930 
	C499.221161,497.808685 496.488739,488.132446 495.358765,478.433075 
	C495.225677,477.290802 494.802917,476.183044 494.658691,475.041046 
	C494.581818,474.432129 494.813721,473.784180 494.904877,473.163147 
	C498.677643,473.543427 503.324921,478.036987 503.698486,482.929047 
	C504.310059,490.938538 506.003693,499.206726 501.242126,507.115784 
z"/>
<path fill="#000000" opacity="1.000000" stroke="none" 
	d="
M545.896179,456.633392 
	C543.293945,464.832458 541.213135,472.835571 536.070129,479.555695 
	C534.571716,481.513611 533.356262,483.611328 530.545776,481.829529 
	C527.688110,480.017853 529.701050,478.366821 530.708252,476.461456 
	C534.670166,468.966309 539.877502,462.108246 542.360229,453.846283 
	C542.633789,452.935638 543.042664,451.946686 544.299927,451.745453 
	C546.833374,452.512787 545.931396,454.557007 545.896179,456.633392 
z"/>
<path fill="#000000" opacity="1.000000" stroke="none" 
	d="
M521.278748,510.051636 
	C519.830261,514.101685 519.678772,518.354065 515.942383,520.804932 
	C514.959473,521.449646 513.960693,522.142090 512.744690,521.580200 
	C511.566650,521.035889 510.742096,519.766296 511.304169,518.753784 
	C514.398865,513.178711 514.246765,505.919739 520.005005,501.333130 
	C523.286926,503.932190 521.547791,506.926941 521.278748,510.051636 
z"/>
</svg>